<svg xmlns="http://www.w3.org/2000/svg" xmlns:xlink="http://www.w3.org/1999/xlink" version="1.1" x="0px" y="0px" viewBox="0 0 100 125" enable-background="new 0 0 100 100" xml:space="preserve"><g><path d="M26.091,50.065c-3.05,5.532-9.313,14.058-18.722,13.359c-1.271-0.104-2.119,0.35-2.397,0.83   c-0.136,0.238-0.078,0.381-0.002,0.494c0.352,0.52,1.909,1.266,5.558,0.73c8.629-1.251,14.881-8.519,16.071-12.362   c-0.033-0.175-0.061-0.352-0.094-0.527C26.354,51.751,26.212,50.909,26.091,50.065z"/><path d="M86.433,76.869c-5.565-2.6-6.612-14.123-6.809-19.338c-1.094,0.343-2.751,1.218-5.175,2.986   c-0.048,0.171-0.115,0.362-0.188,0.637c1.263,7.799,3.87,10.692,5.854,11.826C82.694,74.455,81.781,78,82.194,80h8.694   C89.896,78,88.099,77.67,86.433,76.869z"/><path d="M52.721,77.296c-2.125-0.534-3.635-1.511-4.487-3.325c-1.753-3.733-0.069-9.178,0.953-11.807   c-1.896-0.475-3.821-1.184-5.631-2.23c-0.47,1.329-1.028,2.25-1.351,2.725c-0.397,0.729-0.881,1.453-1.463,2.248   c-0.315,0.982-0.708,3.236,2.005,5.171C46.069,72.442,46.269,78,47.042,80h9.284C55.651,78,54.495,77.741,52.721,77.296z"/><path d="M88.387,25.528l-0.207-0.333C87.764,23.005,85.996,23,85.92,23h-0.547l-0.373-0.42c-1.999-2.163-4.693-3.271-8.006-3.429   c-1.77,0.229-0.346,1.038-0.346,1.038l2.262,1.029l-4.578,0.395c-3.508,0.318-6.201,1.897-8.008,3.394   c-0.004,0.008-0.48,0.945,0.254,0.956l0.449,0.005c0.07,0.001,0.124-0.483,0.164-0.483L67.292,25c0.006,0,0.012,0,0.016,0h0.009   l-0.318,1.964c-0.105,0.486-2.646,12.116-11.353,12.116c-1.012-0.003-2.069-0.07-3.145-0.388   c-10.347-3.063-17.527-2.037-22.729,3.255c-2.883,2.934-2.236,6.458-1.487,10.628c0.617,3.407,1.25,6.697,0.094,10.331   C26.403,69.133,26.489,80,27.398,82h9.147c-0.487,0-1.262-1.375-2.365-1.557c-1.425-0.238-2.501-0.909-2.954-2.642   c-0.805-3.065,0.432-7.812,4.351-10.968c1.199-0.966,2.167-2.01,2.948-3.038c0.045-0.113,0.086-0.239,0.132-0.336l0.073,0.038   c2.17-2.993,2.783-5.755,2.79-5.792l0.237-1.555C41.935,54.313,41.704,52,40.516,49h0.002c0,0-0.005,0.405-0.012,0.392   c-0.027-0.059-0.056,0.09-0.083,0.032c-0.149-0.37-0.344-1.067,0.509-1.54l0.002,0.05c1.071-0.593,1.821,0.771,1.906,0.932   c1.489,3.313,1.673,6.216,1.348,8.508c4.027,2.579,8.938,3.169,12.452,3.169c1.931,0,3.532-0.172,4.502-0.307   c-0.218-1.835-0.403-4.226-0.392-6.766C60.76,53.396,60.927,52,62.085,52h0.001c1.191,0,1.165,1.487,1.165,1.487l0.002,0.04   c-0.021,5.63,0.986,10.175,0.997,10.225l-0.054-0.087c0.745,3.263-0.042,7.497,1.34,9.264C67.583,75.541,67.814,81,67.792,82h8.259   c-0.764-2-4.268-2.941-4.436-2.971l-0.834,0.316l-0.184-0.82c-1.791-8.193,1.441-18.648,1.578-19.088l0.123-0.385l0.325-0.242   c3.515-2.619,6.242-3.892,8.331-3.892c1.24,0,2.099,0.44,2.67,1.011c5.809-6.537,1.966-12.857,1.791-13.138l-1.804-2.875   l2.771,0.837C86.862,40.828,87,40.678,87,39.452c0,0,0-0.001,0-0.002c0-1.211-0.942-2.077-0.446-2.855   c0.589-0.921,1.49-1.07,3.831,0.197c0.501,0.272,0.956,0.411,1.403,0.408c1.717,0,3.101-2.118,3.832-3.586   C92.811,31.698,89.173,26.636,88.387,25.528z M85.587,29.001l-0.969-2.589l4.099,3.234L85.587,29.001z"/></g><text x="0" y="115" fill="#000000" font-size="5px" font-weight="bold" font-family="'Helvetica Neue', Helvetica, Arial-Unicode, Arial, Sans-serif">Created by Iconic</text><text x="0" y="120" fill="#000000" font-size="5px" font-weight="bold" font-family="'Helvetica Neue', Helvetica, Arial-Unicode, Arial, Sans-serif">from the Noun Project</text></svg>