<svg xmlns="http://www.w3.org/2000/svg" xmlns:xlink="http://www.w3.org/1999/xlink" version="1.1" x="0px" y="0px" viewBox="0 0 100 125" enable-background="new 0 0 100 100" xml:space="preserve"><path d="M86.334,26.867c-0.951-0.953-4.613,0.506-12.534-0.731c-7.6-1.188-14.562-2.454-21.077-5.5  c2.811,0.012,5.612-0.192,8.032-0.743c5.617-1.276,7.66-3.574,10.726-8.682c3.063-5.106-0.257-3.83-8.937,0.257  c-6.221,2.927-13.995,4.014-17.913,4.397c-6.298-3.937-9.511-4.66-16.463-4.028c-3.347,0.305-4.545,2.9-7.284,3.812  c-2.738,0.913-3.649-0.305-4.867,0.609c-1.721,1.29-5.74,11.232,0.895,19.612c0.693,0.876,1.402,1.633,2.125,2.3  c3.73,3.67,7.848,5.009,12.284,5.202c-0.75,2.275-1.32,5.503-1.692,9.177c-1.407,4.108-2.325,8.321-2.896,12.346  c-1.962,0.872-3.984,2.62-4.692,6.156c-1.505,7.516,1.155,11.464,4.446,12.73c0,0.001,0.001,0.003,0.001,0.004  c-0.738-0.281-5.159-1.828-6.274,0.957c-1.216,3.042,0.609,4.259,4.26,3.955c3.649-0.304,8.821,0,11.865,0  c1.052,0,2.138,0.069,3.099-0.012c-0.019,0.111-0.037,0.22-0.056,0.316c-0.304,1.521,0.913,2.739,4.867,2.739  c3.058,0,6.694,0.607,10.954,0.302c4.26-0.304,5.806-2.105,8.213-4.867c0.456-0.513,0.878-1.042,1.27-1.582  c0.034-0.047,0.067-0.094,0.101-0.14c0.328-0.459,0.63-0.927,0.915-1.4c0.118-0.194,0.228-0.389,0.339-0.585  c0.169-0.301,0.33-0.604,0.483-0.908c0.229-0.452,0.44-0.904,0.636-1.36c0.012-0.027,0.024-0.055,0.035-0.083  c0.951-2.226,1.538-4.461,1.879-6.511c0.402-1.992,0.545-4.113,0.459-6.299c-0.03-1.356-0.133-2.178-0.133-2.178l-0.007,0  c-0.031-0.309-0.055-0.482-0.055-0.482l-0.018,0.001c-0.797-6.676-3.537-13.686-7.425-19.24c-4.969-7.097-9.51-10.972-12.443-12.981  c0.436-0.796,0.838-1.651,1.2-2.569c0.353-0.871,0.528-1.433,0.528-1.433s12.154,5.96,19.454,5.96c0.425,0,0.854-0.016,1.285-0.042  c0.14-0.008,0.279-0.023,0.419-0.034c0.293-0.023,0.585-0.049,0.879-0.083c0.166-0.019,0.332-0.042,0.498-0.064  c0.27-0.037,0.54-0.077,0.81-0.122c0.171-0.029,0.342-0.058,0.513-0.09c0.266-0.05,0.53-0.105,0.794-0.162  c0.169-0.037,0.338-0.071,0.506-0.111c0.276-0.065,0.547-0.138,0.819-0.211c0.221-0.059,0.439-0.119,0.656-0.183  c0.311-0.092,0.621-0.186,0.925-0.287c0.225-0.075,0.442-0.155,0.662-0.235c0.16-0.058,0.321-0.114,0.478-0.175  c0.238-0.091,0.469-0.186,0.699-0.282c0.123-0.052,0.246-0.103,0.367-0.156c0.246-0.107,0.486-0.217,0.721-0.329  c0.083-0.04,0.164-0.08,0.245-0.12c0.261-0.129,0.516-0.259,0.762-0.393c0.004-0.002,0.008-0.005,0.012-0.007  c1.454-0.797,2.608-1.682,3.314-2.578c0.002-0.002,0.005-0.005,0.007-0.007c-0.001,0.001-0.001,0.001-0.002,0.002  c0.43-0.548,0.708-1.098,0.757-1.633C86.817,27.433,86.683,27.067,86.334,26.867z M32.125,21.75c-1.174,0-2.125-0.951-2.125-2.125  c0-1.174,0.951-2.125,2.125-2.125s2.125,0.951,2.125,2.125C34.25,20.799,33.299,21.75,32.125,21.75z"/><text x="0" y="115" fill="#000000" font-size="5px" font-weight="bold" font-family="'Helvetica Neue', Helvetica, Arial-Unicode, Arial, Sans-serif"></text><text x="0" y="120" fill="#000000" font-size="5px" font-weight="bold" font-family="'Helvetica Neue', Helvetica, Arial-Unicode, Arial, Sans-serif"></text></svg>
